<?xml version="1.0" encoding="utf-8"?>
<!-- Generator: Adobe Illustrator 19.0.0, SVG Export Plug-In . SVG Version: 6.00 Build 0)  -->
<svg version="1.1" id="MediQ_x5F_Logo" xmlns="http://www.w3.org/2000/svg" xmlns:xlink="http://www.w3.org/1999/xlink" x="0px"
	 y="0px" viewBox="0 0 357.5 400" style="enable-background:new 0 0 357.5 400;" xml:space="preserve">
<style type="text/css">
	.st0{fill:#FFFFFF;}
</style>
<path id="White" class="st0" d="M15,6h6v261h-6c-3.4,0-6-3-6-6.4v-248C9,9.2,11.6,6,15,6z M252.6,342.2c-3.2-3.1-7.8-4.3-12.2-3.1
	c-6.5,1.8-13.3,2.8-20.3,2.8c-41.3,0-74.8-33.6-74.8-75.1c0-37.4,27.3-68.5,63-74.2c0.3,0,0.5-0.1,0.8-0.1c3.6-0.5,7.3-0.8,11.1-0.8
	c0.9,0,1.7,0,2.6,0.1c0.7,0,1.5,0.1,2.3,0.1c0.9,0.1,1.8,0.1,2.8,0.2c0,0,0,0,0,0c1.1,0.1,2.1,0.3,3.2,0.4c0.5,0.1,0.9,0.1,1.4,0.2
	c0.6,0.1,1.3,0.2,1.9,0.3c0.6,0.1,1.1,0.2,1.5,0.3c1,0.2,2,0.4,3,0.7c0,0,0,0,0,0v0c32.3,8.3,56.1,37.8,56.1,72.8
	c0,8.9-1.5,17.4-4.4,25.3c-1.7,4.8-0.6,10,3.1,13.5l18.7,18.1c2.3,2.3,6.2,1.7,7.8-1.1c9.2-16.5,14.4-35.5,14.4-55.8
	c0-57-41.6-104.3-95.6-113.3V6h-38.4l0,0l0,0h0.5v0.5l-66.8,110.2L67.5,6.2L67.4,6H29.1l0,261h26.5c6.6,0,11.5-5.5,11.5-12.1V80.6
	l44.4,73.3c2,3.1,5.6,5.1,9.2,5.1h26.8c3.6,0,6.9-2,8.9-4.9l0.3-0.2L201,80.7v73c-54,9.3-95,56.4-95,113.1
	c0,63.4,51.1,114.8,114.3,114.8c18.4,0,35.8-4.4,51.2-12.2c3-1.5,3.6-5.6,1.1-8L252.6,342.2z M347.3,395.2l-6.7-66.1l-16.7,17.3
	l-49.9-48.2c-4.7-4.6-12.2-4.4-16.8,0.3l-10.1,10.5c-4.6,4.7-4.4,12.2,0.3,16.8l49.9,48.2l-16.7,17.3L347.3,395.2z M289.1,103.2
	L247,6.4V120h31.3C286.8,120,292.5,111.1,289.1,103.2z"/>
</svg>
