<?xml version="1.0" encoding="utf-8"?>
<!-- Generator: Adobe Illustrator 19.0.0, SVG Export Plug-In . SVG Version: 6.00 Build 0)  -->
<svg version="1.1" id="MediQ_x5F_Logo" xmlns="http://www.w3.org/2000/svg" xmlns:xlink="http://www.w3.org/1999/xlink" x="0px"
	 y="0px" viewBox="0 0 357.5 400" style="enable-background:new 0 0 357.5 400;" xml:space="preserve">
<path id="Black" d="M21,266.3h-5.7c-3.4,0-6.2-2.8-6.2-6.2v-248c0-3.4,2.8-6.2,6.2-6.2H21V266.3z M239,153V6h-38.1l0,0l0,0h0.1V5.9
	l-66.6,110.2L67.8,5.9L67.7,6H29.4l0,260h26.5c6.6,0,12.2-5.1,12.2-11.6V80.1l44,73.1c2,3.1,5.2,4.9,8.9,4.9h26.8
	c3.6,0,6.9-1.7,8.9-4.7l0.2-0.1L201,80.1v73c-54,9.3-94.8,56.4-94.8,113.1c0,63.4,51.2,114.8,114.3,114.8c18.4,0,35.8-4.4,51.3-12.2
	c3-1.5,3.6-5.6,1.1-8l-20-19.3c-3.2-3.1-7.8-4.3-12.2-3.1c-6.5,1.8-13.3,2.8-20.3,2.8c-41.3,0-74.8-33.6-74.8-75.1
	c0-37.4,27.3-68.5,63-74.2c0.3,0,0.5-0.1,0.8-0.1c3.6-0.5,7.3-0.8,11.1-0.8h0c0.9,0,1.7,0,2.6,0.1c0.7,0,1.5,0.1,2.3,0.1
	c0.9,0.1,1.9,0.1,2.8,0.2c0,0,0,0,0,0c1.1,0.1,2.1,0.3,3.2,0.4c0.5,0.1,0.9,0.1,1.4,0.2c0.6,0.1,1.3,0.2,1.9,0.3
	c0.6,0.1,1.1,0.2,1.5,0.3c1,0.2,2,0.4,3,0.7c0,0,0,0,0,0l0,0c32.3,8.3,56.1,37.8,56.1,72.8c0,8.9-1.5,17.4-4.4,25.3
	c-1.7,4.8-0.6,10,3.1,13.5l18.7,18.1c2.3,2.3,6.2,1.7,7.8-1.1c9.2-16.5,14.3-35.5,14.3-55.8C334.8,209.2,293,161.9,239,153z
	 M280.9,390.7l66.8,4l-6.7-66.1l-16.7,17.3l-49.9-48.2c-4.7-4.6-12.2-4.4-16.8,0.3l-10.1,10.5c-4.6,4.7-4.4,12.2,0.3,16.8l49.9,48.2
	L280.9,390.7z M247.5,119.2h31.1c8.6,0,14.3-8.8,10.9-16.6l-42-96.6V119.2z"/>
</svg>
