<?xml version="1.0" encoding="utf-8"?>
<!-- Generator: Adobe Illustrator 19.0.0, SVG Export Plug-In . SVG Version: 6.00 Build 0)  -->
<svg version="1.1" id="MediQ_x5F_Logo" xmlns="http://www.w3.org/2000/svg" xmlns:xlink="http://www.w3.org/1999/xlink" x="0px"
	 y="0px" viewBox="-637 228 570 570" style="enable-background:new -637 228 570 570;" xml:space="preserve">
<style type="text/css">
	.st0{fill:#EEF7FF;}
	.st1{fill:url(#XMLID_2_);}
	.st2{fill:url(#XMLID_3_);}
	.st3{fill:url(#XMLID_4_);}
	.st4{fill:url(#XMLID_5_);}
	.st5{fill:url(#XMLID_6_);}
</style>
<circle class="st0" cx="-352" cy="513" r="271.3"/>
<g id="Dark">
	
		<radialGradient id="XMLID_2_" cx="-1180.2281" cy="895.2389" r="114.6237" gradientTransform="matrix(-0.866 0.5 2 3.4641 -3122.5579 -1932.1738)" gradientUnits="userSpaceOnUse">
		<stop  offset="1.031190e-006" style="stop-color:#154065"/>
		<stop  offset="0.2738" style="stop-color:#0A2945"/>
		<stop  offset="1" style="stop-color:#0B131A"/>
	</radialGradient>
	<path id="XMLID_18_" class="st1" d="M-277.5,654.4c-3.2-3.1-7.8-4.3-12.2-3.1c-6.5,1.8-13.3,2.8-20.3,2.8
		c-41.3,0-74.8-33.6-74.8-75.1s33.5-75.1,74.8-75.1s74.8,33.6,74.8,75.1c0,8.9-1.5,17.4-4.4,25.3c-1.7,4.8-0.6,10,3.1,13.5
		l18.7,18.1c2.3,2.3,6.2,1.7,7.8-1.1c9.2-16.5,14.4-35.5,14.4-55.8c0-63.4-51.2-114.8-114.4-114.8S-424.4,515.6-424.4,579
		s51.2,114.8,114.4,114.8c18.4,0,35.9-4.4,51.3-12.2c3-1.5,3.6-5.6,1.2-8L-277.5,654.4z"/>
	
		<radialGradient id="XMLID_3_" cx="-1114.7949" cy="1092.2589" r="118.2351" gradientTransform="matrix(-0.7071 0.7071 2.1213 2.1213 -3501.3997 -1079.9067)" gradientUnits="userSpaceOnUse">
		<stop  offset="0" style="stop-color:#0B131A"/>
		<stop  offset="0.7075" style="stop-color:#0A2945"/>
		<stop  offset="1" style="stop-color:#154065"/>
	</radialGradient>
	<path id="XMLID_20_" class="st2" d="M-329.6,318.7L-329.6,318.7L-329.6,318.7L-329.6,318.7L-329.6,318.7l-66.6,110.2l-66.5-110.3
		l0,0h-38.4V579h26.5c6.6,0,11.9-5.3,11.9-11.9V392.9l44.2,73.1l0,0c2,3.1,5.4,4.9,9,4.9h26.8c3.6,0,6.9-1.8,8.9-4.8l0.1-0.2
		l44.1-73.1v113.6c0,0,3.3-1,9.5-1.9c5.5-0.8,10.1-0.7,10.1-0.7s5.2,0,9.2,0.6c5.5,0.7,9.6,1.8,9.6,1.8V318.7H-329.6z"/>
	
		<radialGradient id="XMLID_4_" cx="-1233.9855" cy="1092.2483" r="92.1471" gradientTransform="matrix(-0.7071 0.7071 2.1213 2.1213 -3704.8638 -995.5866)" gradientUnits="userSpaceOnUse">
		<stop  offset="0" style="stop-color:#9DFFB5"/>
		<stop  offset="0.5452" style="stop-color:#189884"/>
		<stop  offset="0.7291" style="stop-color:#189884"/>
		<stop  offset="1" style="stop-color:#129382"/>
	</radialGradient>
	<path id="XMLID_19_" class="st3" d="M-509.4,579h-5.7c-3.4,0-6.2-2.8-6.2-6.2v-248c0-3.4,2.8-6.2,6.2-6.2h5.7V579z"/>
	
		<radialGradient id="XMLID_5_" cx="-1392.1661" cy="624.8287" r="50.9733" gradientTransform="matrix(-0.7071 -0.7071 -2.1213 2.1213 106.4693 -1652.5789)" gradientUnits="userSpaceOnUse">
		<stop  offset="0" style="stop-color:#9DFFB5"/>
		<stop  offset="0.1232" style="stop-color:#97FBB2"/>
		<stop  offset="0.2545" style="stop-color:#78E2A4"/>
		<stop  offset="1" style="stop-color:#00867B"/>
	</radialGradient>
	<path id="XMLID_17_" class="st4" d="M-249.6,703.4l66.8,4l-6.7-66.1l-16.7,17.3l-49.9-48.2c-4.7-4.6-12.2-4.4-16.8,0.3l-10.1,10.5
		c-4.6,4.7-4.4,12.2,0.3,16.8l49.9,48.2L-249.6,703.4z"/>
	
		<radialGradient id="XMLID_6_" cx="-490.2434" cy="691.3139" r="42.8354" gradientTransform="matrix(0.866 -0.5 -1 -1.7321 854.4265 1327.6016)" gradientUnits="userSpaceOnUse">
		<stop  offset="0" style="stop-color:#9DFFB5"/>
		<stop  offset="0.1757" style="stop-color:#83EAA9"/>
		<stop  offset="0.5534" style="stop-color:#24A17C"/>
		<stop  offset="0.8752" style="stop-color:#00867B"/>
	</radialGradient>
	<path id="XMLID_14_" class="st5" d="M-283,318.7l42,96.6c3.4,7.8-2.3,16.6-10.9,16.6H-283V318.7"/>
</g>
</svg>
